<svg width="152" height="43" viewBox="0 0 152 43" fill="none" xmlns="http://www.w3.org/2000/svg">
<rect width="152" height="43" rx="4" fill="black"/>
<path d="M29.8203 14.0538C27.3003 14.0538 26.2353 15.2563 24.4803 15.2563C22.681 15.2563 21.3085 14.0625 19.1247 14.0625C16.9872 14.0625 14.7078 15.3675 13.2603 17.5906C11.2278 20.7256 11.5728 26.63 14.8647 31.66C16.0422 33.4606 17.6147 35.48 19.6772 35.5019H19.7147C21.5072 35.5019 22.0397 34.3281 24.5066 34.3144H24.5441C26.9741 34.3144 27.4616 35.495 29.2466 35.495H29.2841C31.3466 35.4731 33.0035 33.2356 34.181 31.4419C35.0285 30.1519 35.3435 29.5044 35.9935 28.045C31.2316 26.2375 30.4666 19.4869 35.176 16.8988C33.7385 15.0988 31.7185 14.0563 29.8141 14.0563L29.8203 14.0538Z" fill="white"/>
<path d="M29.2654 7.5C27.7654 7.60187 26.0154 8.55687 24.9904 9.80375C24.0604 10.9337 23.2954 12.61 23.5954 14.2356H23.7154C25.3129 14.2356 26.9479 13.2737 27.9029 12.0412C28.8229 10.8681 29.5204 9.20562 29.2654 7.5V7.5Z" fill="white"/>
<path d="M48.936 16V7.48H51.756C52.436 7.48 53.052 7.58 53.604 7.78C54.164 7.98 54.64 8.268 55.032 8.644C55.432 9.012 55.736 9.456 55.944 9.976C56.16 10.496 56.268 11.076 56.268 11.716C56.268 12.364 56.16 12.952 55.944 13.48C55.736 14 55.432 14.448 55.032 14.824C54.64 15.2 54.168 15.492 53.616 15.7C53.064 15.9 52.448 16 51.768 16H48.936ZM49.944 15.076H51.732C52.268 15.076 52.752 15 53.184 14.848C53.616 14.688 53.984 14.464 54.288 14.176C54.592 13.88 54.824 13.528 54.984 13.12C55.152 12.712 55.236 12.252 55.236 11.74C55.236 11.228 55.152 10.768 54.984 10.36C54.824 9.952 54.588 9.604 54.276 9.316C53.972 9.02 53.604 8.796 53.172 8.644C52.748 8.484 52.268 8.404 51.732 8.404H49.944V15.076ZM60.4825 16.18C60.0425 16.18 59.6345 16.1 59.2585 15.94C58.8905 15.772 58.5665 15.544 58.2865 15.256C58.0145 14.96 57.8025 14.612 57.6505 14.212C57.4985 13.812 57.4225 13.376 57.4225 12.904C57.4225 12.432 57.4985 11.996 57.6505 11.596C57.8105 11.196 58.0265 10.852 58.2985 10.564C58.5785 10.268 58.9065 10.04 59.2825 9.88C59.6585 9.712 60.0665 9.628 60.5065 9.628C60.9465 9.628 61.3505 9.712 61.7185 9.88C62.0945 10.04 62.4185 10.268 62.6905 10.564C62.9705 10.852 63.1865 11.196 63.3385 11.596C63.4905 11.996 63.5665 12.432 63.5665 12.904C63.5665 13.376 63.4865 13.812 63.3265 14.212C63.1745 14.612 62.9585 14.96 62.6785 15.256C62.4065 15.544 62.0825 15.772 61.7065 15.94C61.3305 16.1 60.9225 16.18 60.4825 16.18ZM60.4945 15.304C60.7985 15.304 61.0745 15.244 61.3225 15.124C61.5785 15.004 61.7985 14.84 61.9825 14.632C62.1745 14.416 62.3225 14.164 62.4265 13.876C62.5305 13.58 62.5825 13.256 62.5825 12.904C62.5825 12.552 62.5305 12.232 62.4265 11.944C62.3225 11.648 62.1745 11.396 61.9825 11.188C61.7985 10.972 61.5785 10.804 61.3225 10.684C61.0745 10.564 60.7985 10.504 60.4945 10.504C60.1905 10.504 59.9105 10.564 59.6545 10.684C59.4065 10.804 59.1865 10.972 58.9945 11.188C58.8105 11.396 58.6665 11.648 58.5625 11.944C58.4585 12.232 58.4065 12.552 58.4065 12.904C58.4065 13.256 58.4585 13.58 58.5625 13.876C58.6665 14.164 58.8105 14.416 58.9945 14.632C59.1865 14.84 59.4065 15.004 59.6545 15.124C59.9105 15.244 60.1905 15.304 60.4945 15.304ZM66.2532 16L64.1652 9.808H65.1732L66.7212 14.824L68.3172 9.808H69.1812L70.7652 14.824L72.3132 9.808H73.2972L71.2092 16H70.2852L68.7372 11.044L67.1772 16H66.2532ZM74.3517 16V9.808H75.2157L75.2637 10.792C75.4477 10.44 75.7117 10.16 76.0557 9.952C76.4077 9.736 76.8117 9.628 77.2677 9.628C77.7397 9.628 78.1517 9.74 78.5037 9.964C78.8557 10.188 79.1237 10.508 79.3077 10.924C79.4997 11.332 79.5957 11.816 79.5957 12.376V16H78.6357V12.436C78.6357 11.82 78.4997 11.344 78.2277 11.008C77.9637 10.672 77.5837 10.504 77.0877 10.504C76.7437 10.504 76.4357 10.584 76.1637 10.744C75.8997 10.896 75.6917 11.112 75.5397 11.392C75.3877 11.664 75.3117 11.976 75.3117 12.328V16H74.3517ZM81.2306 16V7.096H82.1906V16H81.2306ZM86.6153 16.18C86.1753 16.18 85.7673 16.1 85.3913 15.94C85.0233 15.772 84.6993 15.544 84.4193 15.256C84.1473 14.96 83.9353 14.612 83.7833 14.212C83.6313 13.812 83.5553 13.376 83.5553 12.904C83.5553 12.432 83.6313 11.996 83.7833 11.596C83.9433 11.196 84.1593 10.852 84.4313 10.564C84.7113 10.268 85.0393 10.04 85.4153 9.88C85.7913 9.712 86.1993 9.628 86.6393 9.628C87.0793 9.628 87.4833 9.712 87.8513 9.88C88.2273 10.04 88.5513 10.268 88.8233 10.564C89.1033 10.852 89.3193 11.196 89.4713 11.596C89.6233 11.996 89.6993 12.432 89.6993 12.904C89.6993 13.376 89.6193 13.812 89.4593 14.212C89.3073 14.612 89.0913 14.96 88.8113 15.256C88.5393 15.544 88.2153 15.772 87.8393 15.94C87.4633 16.1 87.0553 16.18 86.6153 16.18ZM86.6273 15.304C86.9313 15.304 87.2073 15.244 87.4553 15.124C87.7113 15.004 87.9313 14.84 88.1153 14.632C88.3073 14.416 88.4553 14.164 88.5593 13.876C88.6633 13.58 88.7153 13.256 88.7153 12.904C88.7153 12.552 88.6633 12.232 88.5593 11.944C88.4553 11.648 88.3073 11.396 88.1153 11.188C87.9313 10.972 87.7113 10.804 87.4553 10.684C87.2073 10.564 86.9313 10.504 86.6273 10.504C86.3233 10.504 86.0433 10.564 85.7873 10.684C85.5393 10.804 85.3193 10.972 85.1273 11.188C84.9433 11.396 84.7993 11.648 84.6953 11.944C84.5913 12.232 84.5393 12.552 84.5393 12.904C84.5393 13.256 84.5913 13.58 84.6953 13.876C84.7993 14.164 84.9433 14.416 85.1273 14.632C85.3193 14.84 85.5393 15.004 85.7873 15.124C86.0433 15.244 86.3233 15.304 86.6273 15.304ZM92.9827 16.18C92.5507 16.18 92.1667 16.1 91.8307 15.94C91.4947 15.772 91.2307 15.544 91.0387 15.256C90.8547 14.968 90.7627 14.636 90.7627 14.26C90.7627 13.852 90.8667 13.5 91.0747 13.204C91.2907 12.908 91.5907 12.68 91.9747 12.52C92.3587 12.352 92.8067 12.268 93.3187 12.268C93.6067 12.268 93.8987 12.3 94.1947 12.364C94.4907 12.428 94.7547 12.512 94.9867 12.616V12.16C94.9867 11.824 94.9187 11.532 94.7827 11.284C94.6547 11.028 94.4747 10.832 94.2427 10.696C94.0107 10.552 93.7387 10.48 93.4267 10.48C93.0507 10.48 92.7227 10.568 92.4427 10.744C92.1707 10.92 91.9667 11.168 91.8307 11.488L90.9907 11.2C91.1027 10.88 91.2747 10.604 91.5067 10.372C91.7467 10.14 92.0307 9.96 92.3587 9.832C92.6947 9.704 93.0547 9.64 93.4387 9.64C93.9347 9.64 94.3667 9.748 94.7347 9.964C95.1107 10.172 95.3987 10.468 95.5987 10.852C95.8067 11.228 95.9107 11.672 95.9107 12.184V16H95.0707L95.0107 15.04C94.8347 15.384 94.5667 15.66 94.2067 15.868C93.8547 16.076 93.4467 16.18 92.9827 16.18ZM91.7347 14.224C91.7347 14.456 91.7947 14.66 91.9147 14.836C92.0347 15.004 92.2027 15.136 92.4187 15.232C92.6347 15.328 92.8827 15.376 93.1627 15.376C93.5067 15.376 93.8147 15.3 94.0867 15.148C94.3667 14.988 94.5867 14.776 94.7467 14.512C94.9067 14.24 94.9867 13.932 94.9867 13.588V13.36C94.7227 13.256 94.4547 13.176 94.1827 13.12C93.9187 13.056 93.6667 13.024 93.4267 13.024C92.8987 13.024 92.4827 13.132 92.1787 13.348C91.8827 13.564 91.7347 13.856 91.7347 14.224ZM100.135 16.18C99.7271 16.18 99.3471 16.1 98.9951 15.94C98.6431 15.772 98.3351 15.54 98.0711 15.244C97.8071 14.948 97.5991 14.604 97.4471 14.212C97.3031 13.812 97.2311 13.38 97.2311 12.916C97.2311 12.452 97.3031 12.02 97.4471 11.62C97.5991 11.22 97.8071 10.872 98.0711 10.576C98.3431 10.28 98.6591 10.048 99.0191 9.88C99.3791 9.712 99.7671 9.628 100.183 9.628C100.655 9.628 101.079 9.736 101.455 9.952C101.839 10.168 102.143 10.472 102.367 10.864V7.096H103.327V16H102.463L102.415 14.824C102.191 15.248 101.879 15.58 101.479 15.82C101.087 16.06 100.639 16.18 100.135 16.18ZM100.303 15.304C100.607 15.304 100.883 15.244 101.131 15.124C101.387 15.004 101.607 14.84 101.791 14.632C101.983 14.416 102.131 14.164 102.235 13.876C102.339 13.58 102.391 13.256 102.391 12.904C102.391 12.552 102.339 12.232 102.235 11.944C102.131 11.648 101.983 11.396 101.791 11.188C101.607 10.972 101.387 10.804 101.131 10.684C100.883 10.564 100.607 10.504 100.303 10.504C99.9991 10.504 99.7191 10.564 99.4631 10.684C99.2151 10.804 98.9951 10.972 98.8031 11.188C98.6191 11.396 98.4751 11.648 98.3711 11.944C98.2671 12.232 98.2151 12.552 98.2151 12.904C98.2151 13.256 98.2671 13.58 98.3711 13.876C98.4751 14.164 98.6191 14.416 98.8031 14.632C98.9951 14.84 99.2151 15.004 99.4631 15.124C99.7191 15.244 99.9991 15.304 100.303 15.304ZM110.381 16.18C109.941 16.18 109.533 16.1 109.157 15.94C108.789 15.772 108.465 15.544 108.185 15.256C107.913 14.96 107.701 14.612 107.549 14.212C107.397 13.812 107.321 13.376 107.321 12.904C107.321 12.432 107.397 11.996 107.549 11.596C107.709 11.196 107.925 10.852 108.197 10.564C108.477 10.268 108.805 10.04 109.181 9.88C109.557 9.712 109.965 9.628 110.405 9.628C110.845 9.628 111.249 9.712 111.617 9.88C111.993 10.04 112.317 10.268 112.589 10.564C112.869 10.852 113.085 11.196 113.237 11.596C113.389 11.996 113.465 12.432 113.465 12.904C113.465 13.376 113.385 13.812 113.225 14.212C113.073 14.612 112.857 14.96 112.577 15.256C112.305 15.544 111.981 15.772 111.605 15.94C111.229 16.1 110.821 16.18 110.381 16.18ZM110.393 15.304C110.697 15.304 110.973 15.244 111.221 15.124C111.477 15.004 111.697 14.84 111.881 14.632C112.073 14.416 112.221 14.164 112.325 13.876C112.429 13.58 112.481 13.256 112.481 12.904C112.481 12.552 112.429 12.232 112.325 11.944C112.221 11.648 112.073 11.396 111.881 11.188C111.697 10.972 111.477 10.804 111.221 10.684C110.973 10.564 110.697 10.504 110.393 10.504C110.089 10.504 109.809 10.564 109.553 10.684C109.305 10.804 109.085 10.972 108.893 11.188C108.709 11.396 108.565 11.648 108.461 11.944C108.357 12.232 108.305 12.552 108.305 12.904C108.305 13.256 108.357 13.58 108.461 13.876C108.565 14.164 108.709 14.416 108.893 14.632C109.085 14.84 109.305 15.004 109.553 15.124C109.809 15.244 110.089 15.304 110.393 15.304ZM114.828 16V9.808H115.692L115.74 10.792C115.924 10.44 116.188 10.16 116.532 9.952C116.884 9.736 117.288 9.628 117.744 9.628C118.216 9.628 118.628 9.74 118.98 9.964C119.332 10.188 119.6 10.508 119.784 10.924C119.976 11.332 120.072 11.816 120.072 12.376V16H119.112V12.436C119.112 11.82 118.976 11.344 118.704 11.008C118.44 10.672 118.06 10.504 117.564 10.504C117.22 10.504 116.912 10.584 116.64 10.744C116.376 10.896 116.168 11.112 116.016 11.392C115.864 11.664 115.788 11.976 115.788 12.328V16H114.828ZM126.648 16.18C126.272 16.18 125.948 16.104 125.676 15.952C125.404 15.8 125.192 15.576 125.04 15.28C124.896 14.984 124.824 14.624 124.824 14.2V10.624H123.684V9.808H124.824V7.732H125.784V9.808H127.728V10.624H125.784V14.152C125.784 14.52 125.86 14.808 126.012 15.016C126.172 15.216 126.412 15.316 126.732 15.316C126.9 15.316 127.068 15.292 127.236 15.244C127.412 15.188 127.568 15.116 127.704 15.028L127.992 15.772C127.824 15.892 127.628 15.988 127.404 16.06C127.18 16.14 126.928 16.18 126.648 16.18ZM129.231 16V7.096H130.191V10.708C130.375 10.38 130.639 10.12 130.983 9.928C131.327 9.728 131.715 9.628 132.147 9.628C132.619 9.628 133.031 9.74 133.383 9.964C133.735 10.188 134.003 10.508 134.187 10.924C134.379 11.332 134.475 11.816 134.475 12.376V16H133.515V12.436C133.515 11.82 133.379 11.344 133.107 11.008C132.843 10.672 132.463 10.504 131.967 10.504C131.623 10.504 131.315 10.584 131.043 10.744C130.779 10.896 130.571 11.112 130.419 11.392C130.267 11.664 130.191 11.976 130.191 12.328V16H129.231ZM138.918 16.18C138.462 16.18 138.042 16.1 137.658 15.94C137.282 15.78 136.954 15.556 136.674 15.268C136.394 14.972 136.178 14.628 136.026 14.236C135.874 13.836 135.798 13.396 135.798 12.916C135.798 12.444 135.87 12.012 136.014 11.62C136.166 11.22 136.374 10.872 136.638 10.576C136.91 10.28 137.226 10.052 137.586 9.892C137.946 9.724 138.338 9.64 138.762 9.64C139.17 9.64 139.546 9.716 139.89 9.868C140.242 10.02 140.546 10.232 140.802 10.504C141.058 10.776 141.254 11.1 141.39 11.476C141.534 11.852 141.606 12.26 141.606 12.7V13.096H136.794C136.826 13.544 136.93 13.936 137.106 14.272C137.29 14.608 137.534 14.868 137.838 15.052C138.142 15.236 138.494 15.328 138.894 15.328C139.286 15.328 139.626 15.248 139.914 15.088C140.21 14.92 140.462 14.676 140.67 14.356L141.486 14.728C141.326 15.032 141.118 15.292 140.862 15.508C140.606 15.724 140.31 15.888 139.974 16C139.646 16.12 139.294 16.18 138.918 16.18ZM138.762 10.456C138.434 10.456 138.134 10.536 137.862 10.696C137.598 10.856 137.374 11.08 137.19 11.368C137.014 11.648 136.898 11.976 136.842 12.352H140.598C140.566 11.976 140.466 11.648 140.298 11.368C140.13 11.08 139.914 10.856 139.65 10.696C139.386 10.536 139.09 10.456 138.762 10.456Z" fill="white"/>
<path d="M48.342 34L53.436 21.22H55.776L60.888 34H58.62L57.414 30.832H51.726L50.52 34H48.342ZM52.446 28.96H56.694L54.57 23.434L52.446 28.96ZM61.8523 37.564V24.586H63.7423L63.8323 26.098C64.1683 25.546 64.6123 25.114 65.1643 24.802C65.7163 24.478 66.3343 24.316 67.0183 24.316C67.6423 24.316 68.2183 24.442 68.7463 24.694C69.2863 24.946 69.7543 25.294 70.1503 25.738C70.5463 26.182 70.8523 26.704 71.0683 27.304C71.2963 27.904 71.4103 28.552 71.4103 29.248C71.4103 29.956 71.2963 30.616 71.0683 31.228C70.8403 31.84 70.5223 32.374 70.1143 32.83C69.7063 33.286 69.2263 33.64 68.6743 33.892C68.1343 34.144 67.5463 34.27 66.9103 34.27C66.2863 34.27 65.7163 34.138 65.2003 33.874C64.6843 33.61 64.2583 33.238 63.9223 32.758V37.564H61.8523ZM66.5863 32.398C67.1023 32.398 67.5643 32.266 67.9723 32.002C68.3803 31.726 68.6983 31.354 68.9263 30.886C69.1663 30.418 69.2863 29.884 69.2863 29.284C69.2863 28.684 69.1663 28.156 68.9263 27.7C68.6983 27.232 68.3803 26.866 67.9723 26.602C67.5643 26.326 67.1023 26.188 66.5863 26.188C66.0703 26.188 65.6083 26.326 65.2003 26.602C64.7923 26.866 64.4683 27.232 64.2283 27.7C64.0003 28.156 63.8863 28.684 63.8863 29.284C63.8863 29.884 64.0003 30.418 64.2283 30.886C64.4683 31.354 64.7923 31.726 65.2003 32.002C65.6083 32.266 66.0703 32.398 66.5863 32.398ZM72.7254 37.564V24.586H74.6154L74.7054 26.098C75.0414 25.546 75.4854 25.114 76.0374 24.802C76.5894 24.478 77.2074 24.316 77.8914 24.316C78.5154 24.316 79.0914 24.442 79.6194 24.694C80.1594 24.946 80.6274 25.294 81.0234 25.738C81.4194 26.182 81.7254 26.704 81.9414 27.304C82.1694 27.904 82.2834 28.552 82.2834 29.248C82.2834 29.956 82.1694 30.616 81.9414 31.228C81.7134 31.84 81.3954 32.374 80.9874 32.83C80.5794 33.286 80.0994 33.64 79.5474 33.892C79.0074 34.144 78.4194 34.27 77.7834 34.27C77.1594 34.27 76.5894 34.138 76.0734 33.874C75.5574 33.61 75.1314 33.238 74.7954 32.758V37.564H72.7254ZM77.4594 32.398C77.9754 32.398 78.4374 32.266 78.8454 32.002C79.2534 31.726 79.5714 31.354 79.7994 30.886C80.0394 30.418 80.1594 29.884 80.1594 29.284C80.1594 28.684 80.0394 28.156 79.7994 27.7C79.5714 27.232 79.2534 26.866 78.8454 26.602C78.4374 26.326 77.9754 26.188 77.4594 26.188C76.9434 26.188 76.4814 26.326 76.0734 26.602C75.6654 26.866 75.3414 27.232 75.1014 27.7C74.8734 28.156 74.7594 28.684 74.7594 29.284C74.7594 29.884 74.8734 30.418 75.1014 30.886C75.3414 31.354 75.6654 31.726 76.0734 32.002C76.4814 32.266 76.9434 32.398 77.4594 32.398ZM90.8365 34.27C90.1165 34.27 89.4445 34.144 88.8205 33.892C88.2085 33.628 87.6865 33.262 87.2545 32.794C86.8225 32.326 86.5165 31.768 86.3365 31.12L88.4065 30.616C88.5985 31.168 88.9045 31.594 89.3245 31.894C89.7445 32.194 90.2545 32.344 90.8545 32.344C91.2865 32.344 91.6705 32.26 92.0065 32.092C92.3425 31.924 92.6065 31.696 92.7985 31.408C93.0025 31.12 93.1045 30.79 93.1045 30.418C93.1045 29.962 92.9365 29.584 92.6005 29.284C92.2765 28.972 91.7605 28.738 91.0525 28.582L90.3865 28.438C89.1145 28.162 88.1725 27.706 87.5605 27.07C86.9605 26.434 86.6605 25.66 86.6605 24.748C86.6605 24.196 86.7685 23.692 86.9845 23.236C87.2005 22.768 87.5005 22.366 87.8845 22.03C88.2685 21.682 88.7185 21.418 89.2345 21.238C89.7505 21.046 90.3085 20.95 90.9085 20.95C91.5925 20.95 92.2225 21.076 92.7985 21.328C93.3745 21.58 93.8665 21.94 94.2745 22.408C94.6825 22.864 94.9705 23.41 95.1385 24.046L93.0865 24.55C92.8945 24.01 92.6065 23.596 92.2225 23.308C91.8385 23.02 91.3825 22.876 90.8545 22.876C90.4705 22.876 90.1285 22.954 89.8285 23.11C89.5405 23.254 89.3065 23.458 89.1265 23.722C88.9585 23.974 88.8745 24.262 88.8745 24.586C88.8745 25.054 89.0485 25.426 89.3965 25.702C89.7445 25.978 90.2785 26.2 90.9985 26.368L91.6645 26.512C94.1125 27.064 95.3365 28.306 95.3365 30.238C95.3365 30.826 95.2225 31.372 94.9945 31.876C94.7785 32.368 94.4665 32.794 94.0585 33.154C93.6505 33.502 93.1705 33.778 92.6185 33.982C92.0785 34.174 91.4845 34.27 90.8365 34.27ZM100.408 34.27C99.4603 34.27 98.7163 34 98.1763 33.46C97.6363 32.908 97.3663 32.122 97.3663 31.102V26.26H95.7103V24.586H97.3663V21.4H99.4363V24.586H102.172V26.26H99.4363V30.886C99.4363 31.39 99.5383 31.78 99.7423 32.056C99.9583 32.32 100.27 32.452 100.678 32.452C100.894 32.452 101.128 32.422 101.38 32.362C101.632 32.29 101.866 32.194 102.082 32.074L102.55 33.64C102.274 33.832 101.95 33.982 101.578 34.09C101.218 34.21 100.828 34.27 100.408 34.27ZM107.883 34.27C107.199 34.27 106.563 34.15 105.975 33.91C105.399 33.658 104.895 33.31 104.463 32.866C104.031 32.41 103.695 31.882 103.455 31.282C103.215 30.67 103.095 30.004 103.095 29.284C103.095 28.576 103.215 27.922 103.455 27.322C103.695 26.71 104.031 26.182 104.463 25.738C104.907 25.282 105.423 24.934 106.011 24.694C106.611 24.442 107.259 24.316 107.955 24.316C108.639 24.316 109.269 24.442 109.845 24.694C110.433 24.934 110.943 25.282 111.375 25.738C111.807 26.182 112.143 26.704 112.383 27.304C112.623 27.904 112.743 28.564 112.743 29.284C112.743 30.004 112.623 30.67 112.383 31.282C112.143 31.882 111.801 32.41 111.357 32.866C110.925 33.31 110.409 33.658 109.809 33.91C109.221 34.15 108.579 34.27 107.883 34.27ZM107.919 32.398C108.435 32.398 108.897 32.266 109.305 32.002C109.713 31.726 110.031 31.354 110.259 30.886C110.499 30.418 110.619 29.884 110.619 29.284C110.619 28.684 110.499 28.156 110.259 27.7C110.031 27.232 109.713 26.866 109.305 26.602C108.897 26.326 108.435 26.188 107.919 26.188C107.403 26.188 106.941 26.326 106.533 26.602C106.125 26.866 105.801 27.232 105.561 27.7C105.333 28.156 105.219 28.684 105.219 29.284C105.219 29.884 105.333 30.418 105.561 30.886C105.801 31.354 106.125 31.726 106.533 32.002C106.941 32.266 107.403 32.398 107.919 32.398ZM114.065 34V24.586H115.955L116.045 26.134C116.285 25.606 116.615 25.198 117.035 24.91C117.467 24.61 117.971 24.46 118.547 24.46C118.727 24.46 118.901 24.472 119.069 24.496C119.237 24.52 119.387 24.562 119.519 24.622L119.285 26.638C119.153 26.59 119.015 26.56 118.871 26.548C118.727 26.524 118.583 26.512 118.439 26.512C117.719 26.512 117.155 26.752 116.747 27.232C116.339 27.712 116.135 28.378 116.135 29.23V34H114.065ZM124.636 34.27C123.94 34.27 123.298 34.15 122.71 33.91C122.134 33.658 121.63 33.31 121.198 32.866C120.766 32.422 120.43 31.9 120.19 31.3C119.962 30.688 119.848 30.016 119.848 29.284C119.848 28.576 119.962 27.922 120.19 27.322C120.43 26.722 120.754 26.2 121.162 25.756C121.582 25.3 122.074 24.946 122.638 24.694C123.202 24.442 123.814 24.316 124.474 24.316C125.134 24.316 125.734 24.436 126.274 24.676C126.826 24.904 127.3 25.234 127.696 25.666C128.104 26.098 128.416 26.614 128.632 27.214C128.848 27.802 128.956 28.456 128.956 29.176V29.788H121.99C122.05 30.34 122.194 30.82 122.422 31.228C122.662 31.624 122.968 31.93 123.34 32.146C123.712 32.362 124.144 32.47 124.636 32.47C125.62 32.47 126.388 32.032 126.94 31.156L128.758 31.858C128.542 32.35 128.224 32.782 127.804 33.154C127.396 33.514 126.916 33.79 126.364 33.982C125.824 34.174 125.248 34.27 124.636 34.27ZM124.474 25.99C124.054 25.99 123.676 26.086 123.34 26.278C123.016 26.47 122.74 26.74 122.512 27.088C122.284 27.436 122.128 27.844 122.044 28.312H126.796C126.724 27.844 126.586 27.436 126.382 27.088C126.178 26.74 125.908 26.47 125.572 26.278C125.248 26.086 124.882 25.99 124.474 25.99Z" fill="white"/>
</svg>
