<svg width="24" height="24" viewBox="0 0 24 24" fill="none" xmlns="http://www.w3.org/2000/svg">
<path opacity="0.4" d="M12 22C17.5228 22 22 17.5228 22 12C22 6.47715 17.5228 2 12 2C6.47715 2 2 6.47715 2 12C2 17.5228 6.47715 22 12 22Z" fill="#1D4ED8"/>
<path d="M13.26 16.28C13.07 16.28 12.88 16.21 12.73 16.06L9.20004 12.53C8.91004 12.24 8.91004 11.76 9.20004 11.47L12.73 7.93997C13.02 7.64997 13.5 7.64997 13.79 7.93997C14.08 8.22997 14.08 8.70997 13.79 8.99997L10.79 12L13.79 15C14.08 15.29 14.08 15.77 13.79 16.06C13.65 16.21 13.46 16.28 13.26 16.28Z" fill="#1D4ED8"/>
</svg>
