<svg width="106" height="106" viewBox="0 0 106 106" fill="none" xmlns="http://www.w3.org/2000/svg">
<path d="M0 53C0 23.7289 23.7289 0 53 0C82.2711 0 106 23.7289 106 53C106 82.2711 82.2711 106 53 106C23.7289 106 0 82.2711 0 53Z" fill="#1D4ED8" fill-opacity="0.05"/>
<rect x="14" y="14" width="80" height="80" rx="40" fill="#1D4ED8" fill-opacity="0.1"/>
<path d="M70.0002 38H38.0002C35.7942 38 34.0002 39.794 34.0002 42V66C34.0002 68.206 35.7942 70 38.0002 70H70.0002C72.2062 70 74.0002 68.206 74.0002 66V42C74.0002 39.794 72.2062 38 70.0002 38ZM70.0002 42V43.022L54.0002 55.468L38.0002 43.024V42H70.0002ZM38.0002 66V48.088L52.7722 59.578C53.1225 59.8531 53.5549 60.0026 54.0002 60.0026C54.4456 60.0026 54.878 59.8531 55.2282 59.578L70.0002 48.088L70.0042 66H38.0002Z" fill="#1D4ED8"/>
</svg>
