<svg width="188" height="150" viewBox="0 0 188 150" fill="none" xmlns="http://www.w3.org/2000/svg">
<path fill-rule="evenodd" clip-rule="evenodd" d="M42 95.25C42 98.1495 44.3505 100.5 47.25 100.5H156.75C159.649 100.5 162 98.1495 162 95.25C162 92.3505 159.649 90 156.75 90H152.25C149.351 90 147 87.6495 147 84.75C147 81.8505 149.351 79.5 152.25 79.5H166.5C169.399 79.5 171.75 77.1495 171.75 74.25C171.75 71.3505 169.399 69 166.5 69H150C152.899 69 155.25 66.6495 155.25 63.75C155.25 60.8505 152.899 58.5 150 58.5H102C104.899 58.5 107.25 56.1495 107.25 53.25C107.25 50.3505 104.899 48 102 48H59.25C56.3505 48 54 50.3505 54 53.25C54 56.1495 56.3505 58.5 59.25 58.5H29.25C26.3505 58.5 24 60.8505 24 63.75C24 66.6495 26.3505 69 29.25 69H48C50.8995 69 53.25 71.3505 53.25 74.25C53.25 77.1495 50.8995 79.5 48 79.5H18C15.1005 79.5 12.75 81.8505 12.75 84.75C12.75 87.6495 15.1005 90 18 90H47.25C44.3505 90 42 92.3505 42 95.25ZM169.5 100.5C172.399 100.5 174.75 98.1495 174.75 95.25C174.75 92.3505 172.399 90 169.5 90C166.601 90 164.25 92.3505 164.25 95.25C164.25 98.1495 166.601 100.5 169.5 100.5Z" fill="#F3F7FF"/>
<path fill-rule="evenodd" clip-rule="evenodd" d="M69 105C59.8873 105 52.5 97.7806 52.5 88.875C52.5 79.9694 59.8873 72.75 69 72.75C69.3875 72.75 69.7719 72.7631 70.1527 72.7887C69.8881 71.3158 69.75 69.7991 69.75 68.25C69.75 54.1667 81.1667 42.75 95.25 42.75C106.493 42.75 116.037 50.0265 119.429 60.1271C120.233 60.0431 121.049 60 121.875 60C134.509 60 144.75 70.0736 144.75 82.5C144.75 94.3055 135.506 104.046 123.75 104.984V105H81.3809M77.997 105H72.7735H77.997Z" fill="white"/>
<path d="M69 106.25C69.6904 106.25 70.25 105.69 70.25 105C70.25 104.31 69.6904 103.75 69 103.75V106.25ZM70.1527 72.7887L70.0686 74.0359L71.6661 74.1436L71.383 72.5677L70.1527 72.7887ZM119.429 60.1271L118.244 60.5251L118.563 61.4745L119.559 61.3703L119.429 60.1271ZM123.75 104.984L123.651 103.738L122.5 103.829V104.984H123.75ZM123.75 105V106.25H125V105H123.75ZM81.3809 103.75C80.6905 103.75 80.1309 104.31 80.1309 105C80.1309 105.69 80.6905 106.25 81.3809 106.25V103.75ZM77.997 106.25C78.6873 106.25 79.247 105.69 79.247 105C79.247 104.31 78.6873 103.75 77.997 103.75V106.25ZM72.7735 103.75C72.0832 103.75 71.5235 104.31 71.5235 105C71.5235 105.69 72.0832 106.25 72.7735 106.25V103.75ZM69 103.75C60.5504 103.75 53.75 97.0633 53.75 88.875H51.25C51.25 98.4979 59.2242 106.25 69 106.25V103.75ZM53.75 88.875C53.75 80.6867 60.5504 74 69 74V71.5C59.2242 71.5 51.25 79.2521 51.25 88.875H53.75ZM69 74C69.3594 74 69.7158 74.0121 70.0686 74.0359L70.2368 71.5416C69.828 71.514 69.4156 71.5 69 71.5V74ZM71.383 72.5677C71.1315 71.1674 71 69.7246 71 68.25H68.5C68.5 69.8735 68.6448 71.4643 68.9224 73.0098L71.383 72.5677ZM71 68.25C71 54.8571 81.8571 44 95.25 44V41.5C80.4764 41.5 68.5 53.4764 68.5 68.25H71ZM95.25 44C105.94 44 115.018 50.9181 118.244 60.5251L120.614 59.7292C117.056 49.1349 107.046 41.5 95.25 41.5V44ZM119.559 61.3703C120.319 61.2908 121.092 61.25 121.875 61.25V58.75C121.005 58.75 120.146 58.7954 119.299 58.8839L119.559 61.3703ZM121.875 61.25C133.838 61.25 143.5 70.7833 143.5 82.5H146C146 69.3638 135.179 58.75 121.875 58.75V61.25ZM143.5 82.5C143.5 93.6353 134.776 102.85 123.651 103.738L123.849 106.23C136.237 105.241 146 94.9756 146 82.5H143.5ZM122.5 104.984V105H125V104.984H122.5ZM123.75 103.75H81.3809V106.25H123.75V103.75ZM77.997 103.75H72.7735V106.25H77.997V103.75Z" fill="#3167FF"/>
<circle cx="95.625" cy="90.375" r="4.125" stroke="#3167FF" stroke-width="2.5"/>
<path d="M84 81.7499L89.25 77.6301L84 73.7081" stroke="#3167FF" stroke-width="2.5" stroke-linecap="round" stroke-linejoin="round"/>
<path d="M107.25 81.7499L102 77.6301L107.25 73.7081" stroke="#3167FF" stroke-width="2.5" stroke-linecap="round" stroke-linejoin="round"/>
<ellipse rx="5.04011" ry="4.98495" transform="matrix(-1 0 0 1 107.79 55.2349)" stroke="#1D4ED8" stroke-width="2.5" stroke-linecap="round"/>
<circle cx="118.5" cy="35.25" r="2.25" stroke="#1D4ED8" stroke-width="2"/>
<ellipse cx="141.75" cy="47.25" rx="2.25" ry="2.25" fill="#1D4ED8"/>
<path d="M131.566 42.4341L132.45 41.5502V41.5502L131.566 42.4341ZM131.566 44.2019L132.45 45.0858L131.566 44.2019ZM129.798 42.4341L130.682 43.318L129.798 42.4341ZM127.5 44.7322L126.616 45.6161C127.104 46.1042 127.896 46.1042 128.384 45.6161L127.5 44.7322ZM125.202 42.4341L124.318 43.318L125.202 42.4341ZM123.434 42.4341L124.318 43.318V43.318L123.434 42.4341ZM123.434 44.2019L122.55 45.0858L123.434 44.2019ZM125.732 46.5L126.616 47.3839C126.851 47.1494 126.982 46.8315 126.982 46.5C126.982 46.1685 126.851 45.8505 126.616 45.6161L125.732 46.5ZM123.529 48.7028L124.413 49.5867L123.529 48.7028ZM123.529 50.4705L122.646 51.3544H122.646L123.529 50.4705ZM125.297 50.4705L124.413 49.5867L124.413 49.5867L125.297 50.4705ZM127.5 48.2677L128.384 47.3839C127.896 46.8957 127.104 46.8957 126.616 47.3839L127.5 48.2677ZM129.703 50.4705L130.587 49.5867L130.587 49.5867L129.703 50.4705ZM131.471 48.7028L130.587 49.5867L130.587 49.5867L131.471 48.7028ZM129.268 46.5L128.384 45.6161C128.149 45.8505 128.018 46.1685 128.018 46.5C128.018 46.8315 128.149 47.1494 128.384 47.3839L129.268 46.5ZM130.682 43.318L132.45 45.0858C133.426 44.1094 133.426 42.5265 132.45 41.5502L130.682 43.318ZM130.682 43.318L130.682 43.318L132.45 41.5502C131.473 40.5739 129.891 40.5739 128.914 41.5502L130.682 43.318ZM128.384 45.6161L130.682 43.318L128.914 41.5502L126.616 43.8483L128.384 45.6161ZM124.318 43.318L126.616 45.6161L128.384 43.8483L126.086 41.5502L124.318 43.318ZM124.318 43.318V43.318L126.086 41.5502C125.109 40.5739 123.527 40.5739 122.55 41.5502L124.318 43.318ZM124.318 43.318L122.55 41.5502C121.574 42.5265 121.574 44.1094 122.55 45.0858L124.318 43.318ZM126.616 45.6161L124.318 43.318L122.55 45.0858L124.848 47.3839L126.616 45.6161ZM124.413 49.5867L126.616 47.3839L124.848 45.6161L122.646 47.8189L124.413 49.5867ZM124.413 49.5867L122.646 47.8189C121.669 48.7952 121.669 50.3781 122.646 51.3544L124.413 49.5867ZM124.413 49.5867L124.413 49.5867L122.646 51.3544C123.622 52.3307 125.205 52.3307 126.181 51.3544L124.413 49.5867ZM126.616 47.3839L124.413 49.5867L126.181 51.3544L128.384 49.1516L126.616 47.3839ZM130.587 49.5867L128.384 47.3839L126.616 49.1516L128.819 51.3544L130.587 49.5867ZM130.587 49.5867L130.587 49.5867L128.819 51.3544C129.795 52.3307 131.378 52.3307 132.354 51.3544L130.587 49.5867ZM130.587 49.5867L130.587 49.5867L132.354 51.3544C133.331 50.3781 133.331 48.7952 132.354 47.8189L130.587 49.5867ZM128.384 47.3839L130.587 49.5867L132.354 47.8189L130.152 45.6161L128.384 47.3839ZM130.682 43.318L128.384 45.6161L130.152 47.3839L132.45 45.0858L130.682 43.318Z" fill="#1D4ED8"/>
<path d="M55.8029 57.1794L54.919 58.0633C55.4071 58.5514 56.1986 58.5514 56.6867 58.0633L55.8029 57.1794ZM54.0351 58.9471L54.919 59.831C55.4071 59.3429 55.4071 58.5514 54.919 58.0633L54.0351 58.9471ZM55.8029 60.7149L56.6867 59.831C56.1986 59.3429 55.4071 59.3429 54.919 59.831L55.8029 60.7149ZM57.5706 58.9471L56.6867 58.0633C56.1986 58.5514 56.1986 59.3429 56.6867 59.831L57.5706 58.9471ZM58.0529 56.6971L59.8206 58.4649C60.7969 57.4886 60.7969 55.9057 59.8206 54.9294L58.0529 56.6971ZM58.0529 56.6971L59.8206 54.9294C58.8443 53.9531 57.2614 53.9531 56.2851 54.9294L58.0529 56.6971ZM56.6867 58.0633L58.0529 56.6971L56.2851 54.9294L54.919 56.2955L56.6867 58.0633ZM53.5529 56.6971L54.919 58.0633L56.6867 56.2955L55.3206 54.9294L53.5529 56.6971ZM53.5529 56.6971L55.3206 54.9294C54.3443 53.9531 52.7614 53.9531 51.7851 54.9294L53.5529 56.6971ZM53.5529 56.6971L51.7851 54.9294C50.8088 55.9057 50.8088 57.4886 51.7851 58.4649L53.5529 56.6971ZM54.919 58.0633L53.5529 56.6971L51.7851 58.4649L53.1512 59.831L54.919 58.0633ZM53.5529 61.1971L54.919 59.831L53.1512 58.0633L51.7851 59.4294L53.5529 61.1971ZM53.5529 61.1971L51.7851 59.4294C50.8088 60.4057 50.8088 61.9886 51.7851 62.9649L53.5529 61.1971ZM53.5529 61.1971L51.7851 62.9649C52.7614 63.9412 54.3443 63.9412 55.3206 62.9649L53.5529 61.1971ZM54.919 59.831L53.5529 61.1971L55.3206 62.9649L56.6867 61.5988L54.919 59.831ZM58.0529 61.1971L56.6867 59.831L54.919 61.5988L56.2851 62.9649L58.0529 61.1971ZM58.0529 61.1971L56.2851 62.9649C57.2614 63.9412 58.8443 63.9412 59.8206 62.9649L58.0529 61.1971ZM58.0529 61.1971L59.8206 62.9649C60.7969 61.9886 60.7969 60.4057 59.8206 59.4294L58.0529 61.1971ZM56.6867 59.831L58.0529 61.1971L59.8206 59.4294L58.4545 58.0633L56.6867 59.831ZM58.0529 56.6971L56.6867 58.0633L58.4545 59.831L59.8206 58.4649L58.0529 56.6971Z" fill="#1D4ED8"/>
<circle cx="63.75" cy="49.5" r="2.25" fill="#1D4ED8"/>
</svg>
