<svg width="152" height="43" viewBox="0 0 152 43" fill="none" xmlns="http://www.w3.org/2000/svg">
<rect width="152" height="43" rx="4" fill="black"/>
<path d="M11 9.21813V33.7806C11.0002 33.8339 11.0161 33.886 11.0457 33.9303C11.0753 33.9746 11.1174 34.0091 11.1666 34.0296C11.2158 34.0501 11.2699 34.0556 11.3222 34.0455C11.3745 34.0353 11.4227 34.0099 11.4606 33.9725L24.25 21.5L11.4606 9.02625C11.4227 8.98884 11.3745 8.96346 11.3222 8.9533C11.2699 8.94314 11.2158 8.94865 11.1666 8.96915C11.1174 8.98964 11.0753 9.0242 11.0457 9.06849C11.0161 9.11278 11.0002 9.16484 11 9.21813V9.21813ZM29.6125 16.375L13.5762 7.54L13.5662 7.53438C13.29 7.38438 13.0275 7.75813 13.2537 7.97563L25.8244 19.9956L29.6125 16.375ZM13.255 35.0244C13.0275 35.2419 13.29 35.6156 13.5675 35.4656L13.5775 35.46L29.6125 26.625L25.8244 23.0031L13.255 35.0244ZM36.0862 19.9375L31.6081 17.4713L27.3975 21.5L31.6081 25.5269L36.0862 23.0625C37.3044 22.3894 37.3044 20.6106 36.0862 19.9375Z" fill="white"/>
<path d="M52.848 16.24C52.232 16.24 51.664 16.132 51.144 15.916C50.632 15.692 50.188 15.38 49.812 14.98C49.436 14.58 49.144 14.108 48.936 13.564C48.728 13.02 48.624 12.428 48.624 11.788C48.624 11.268 48.692 10.776 48.828 10.312C48.964 9.848 49.16 9.428 49.416 9.052C49.672 8.676 49.972 8.356 50.316 8.092C50.668 7.82 51.056 7.612 51.48 7.468C51.904 7.316 52.356 7.24 52.836 7.24C53.348 7.24 53.828 7.324 54.276 7.492C54.724 7.66 55.116 7.9 55.452 8.212C55.796 8.516 56.072 8.88 56.28 9.304L55.344 9.688C55.088 9.208 54.744 8.836 54.312 8.572C53.888 8.3 53.4 8.164 52.848 8.164C52.392 8.164 51.968 8.256 51.576 8.44C51.192 8.616 50.856 8.868 50.568 9.196C50.28 9.516 50.056 9.896 49.896 10.336C49.736 10.776 49.656 11.256 49.656 11.776C49.656 12.28 49.732 12.748 49.884 13.18C50.044 13.612 50.268 13.988 50.556 14.308C50.844 14.628 51.184 14.876 51.576 15.052C51.968 15.228 52.4 15.316 52.872 15.316C53.28 15.316 53.652 15.248 53.988 15.112C54.332 14.976 54.632 14.784 54.888 14.536C55.144 14.288 55.344 13.992 55.488 13.648C55.632 13.304 55.708 12.92 55.716 12.496H53.112V11.608H56.748V12.292C56.748 12.876 56.652 13.408 56.46 13.888C56.268 14.368 55.996 14.784 55.644 15.136C55.3 15.488 54.888 15.76 54.408 15.952C53.936 16.144 53.416 16.24 52.848 16.24ZM61.0464 16.18C60.5904 16.18 60.1704 16.1 59.7864 15.94C59.4104 15.78 59.0824 15.556 58.8024 15.268C58.5224 14.972 58.3064 14.628 58.1544 14.236C58.0024 13.836 57.9264 13.396 57.9264 12.916C57.9264 12.444 57.9984 12.012 58.1424 11.62C58.2944 11.22 58.5024 10.872 58.7664 10.576C59.0384 10.28 59.3544 10.052 59.7144 9.892C60.0744 9.724 60.4664 9.64 60.8904 9.64C61.2984 9.64 61.6744 9.716 62.0184 9.868C62.3704 10.02 62.6744 10.232 62.9304 10.504C63.1864 10.776 63.3824 11.1 63.5184 11.476C63.6624 11.852 63.7344 12.26 63.7344 12.7V13.096H58.9224C58.9544 13.544 59.0584 13.936 59.2344 14.272C59.4184 14.608 59.6624 14.868 59.9664 15.052C60.2704 15.236 60.6224 15.328 61.0224 15.328C61.4144 15.328 61.7544 15.248 62.0424 15.088C62.3384 14.92 62.5904 14.676 62.7984 14.356L63.6144 14.728C63.4544 15.032 63.2464 15.292 62.9904 15.508C62.7344 15.724 62.4384 15.888 62.1024 16C61.7744 16.12 61.4224 16.18 61.0464 16.18ZM60.8904 10.456C60.5624 10.456 60.2624 10.536 59.9904 10.696C59.7264 10.856 59.5024 11.08 59.3184 11.368C59.1424 11.648 59.0264 11.976 58.9704 12.352H62.7264C62.6944 11.976 62.5944 11.648 62.4264 11.368C62.2584 11.08 62.0424 10.856 61.7784 10.696C61.5144 10.536 61.2184 10.456 60.8904 10.456ZM67.3982 16.18C67.0222 16.18 66.6982 16.104 66.4262 15.952C66.1542 15.8 65.9422 15.576 65.7902 15.28C65.6462 14.984 65.5742 14.624 65.5742 14.2V10.624H64.4342V9.808H65.5742V7.732H66.5342V9.808H68.4782V10.624H66.5342V14.152C66.5342 14.52 66.6102 14.808 66.7622 15.016C66.9222 15.216 67.1622 15.316 67.4822 15.316C67.6502 15.316 67.8182 15.292 67.9862 15.244C68.1622 15.188 68.3182 15.116 68.4542 15.028L68.7422 15.772C68.5742 15.892 68.3782 15.988 68.1542 16.06C67.9302 16.14 67.6782 16.18 67.3982 16.18ZM73.7456 7.996C73.7456 8.116 73.7136 8.228 73.6496 8.332C73.5936 8.428 73.5136 8.508 73.4096 8.572C73.3136 8.628 73.2056 8.656 73.0856 8.656C72.9656 8.656 72.8536 8.628 72.7496 8.572C72.6536 8.508 72.5736 8.428 72.5096 8.332C72.4536 8.228 72.4256 8.116 72.4256 7.996C72.4256 7.876 72.4536 7.768 72.5096 7.672C72.5736 7.568 72.6536 7.488 72.7496 7.432C72.8536 7.368 72.9656 7.336 73.0856 7.336C73.2056 7.336 73.3136 7.368 73.4096 7.432C73.5136 7.488 73.5936 7.568 73.6496 7.672C73.7136 7.768 73.7456 7.876 73.7456 7.996ZM72.6056 16V9.808H73.5656V16H72.6056ZM77.5583 16.18C77.1823 16.18 76.8583 16.104 76.5863 15.952C76.3143 15.8 76.1023 15.576 75.9503 15.28C75.8063 14.984 75.7343 14.624 75.7343 14.2V10.624H74.5943V9.808H75.7343V7.732H76.6943V9.808H78.6383V10.624H76.6943V14.152C76.6943 14.52 76.7703 14.808 76.9223 15.016C77.0823 15.216 77.3223 15.316 77.6423 15.316C77.8103 15.316 77.9783 15.292 78.1463 15.244C78.3223 15.188 78.4783 15.116 78.6143 15.028L78.9023 15.772C78.7343 15.892 78.5383 15.988 78.3143 16.06C78.0903 16.14 77.8383 16.18 77.5583 16.18ZM85.5138 16.18C85.0738 16.18 84.6658 16.1 84.2898 15.94C83.9218 15.772 83.5978 15.544 83.3178 15.256C83.0458 14.96 82.8338 14.612 82.6818 14.212C82.5298 13.812 82.4538 13.376 82.4538 12.904C82.4538 12.432 82.5298 11.996 82.6818 11.596C82.8418 11.196 83.0578 10.852 83.3298 10.564C83.6098 10.268 83.9378 10.04 84.3138 9.88C84.6898 9.712 85.0978 9.628 85.5378 9.628C85.9778 9.628 86.3818 9.712 86.7498 9.88C87.1258 10.04 87.4498 10.268 87.7218 10.564C88.0018 10.852 88.2178 11.196 88.3698 11.596C88.5218 11.996 88.5978 12.432 88.5978 12.904C88.5978 13.376 88.5178 13.812 88.3578 14.212C88.2058 14.612 87.9898 14.96 87.7098 15.256C87.4378 15.544 87.1138 15.772 86.7378 15.94C86.3618 16.1 85.9538 16.18 85.5138 16.18ZM85.5258 15.304C85.8298 15.304 86.1058 15.244 86.3538 15.124C86.6098 15.004 86.8298 14.84 87.0138 14.632C87.2058 14.416 87.3538 14.164 87.4578 13.876C87.5618 13.58 87.6138 13.256 87.6138 12.904C87.6138 12.552 87.5618 12.232 87.4578 11.944C87.3538 11.648 87.2058 11.396 87.0138 11.188C86.8298 10.972 86.6098 10.804 86.3538 10.684C86.1058 10.564 85.8298 10.504 85.5258 10.504C85.2218 10.504 84.9418 10.564 84.6858 10.684C84.4378 10.804 84.2178 10.972 84.0258 11.188C83.8418 11.396 83.6978 11.648 83.5938 11.944C83.4898 12.232 83.4378 12.552 83.4378 12.904C83.4378 13.256 83.4898 13.58 83.5938 13.876C83.6978 14.164 83.8418 14.416 84.0258 14.632C84.2178 14.84 84.4378 15.004 84.6858 15.124C84.9418 15.244 85.2218 15.304 85.5258 15.304ZM89.9611 16V9.808H90.8251L90.8731 10.792C91.0571 10.44 91.3211 10.16 91.6651 9.952C92.0171 9.736 92.4211 9.628 92.8771 9.628C93.3491 9.628 93.7611 9.74 94.1131 9.964C94.4651 10.188 94.7331 10.508 94.9171 10.924C95.1091 11.332 95.2051 11.816 95.2051 12.376V16H94.2451V12.436C94.2451 11.82 94.1091 11.344 93.8371 11.008C93.5731 10.672 93.1931 10.504 92.6971 10.504C92.3531 10.504 92.0451 10.584 91.7731 10.744C91.5091 10.896 91.3011 11.112 91.1491 11.392C90.9971 11.664 90.9211 11.976 90.9211 12.328V16H89.9611Z" fill="white"/>
<path d="M55.272 34.36C54.528 34.36 53.826 34.252 53.166 34.036C52.518 33.82 51.93 33.514 51.402 33.118C50.874 32.71 50.418 32.23 50.034 31.678C49.65 31.126 49.35 30.514 49.134 29.842C48.93 29.158 48.828 28.426 48.828 27.646C48.828 26.866 48.93 26.134 49.134 25.45C49.35 24.766 49.65 24.142 50.034 23.578C50.43 23.014 50.892 22.534 51.42 22.138C51.96 21.73 52.554 21.418 53.202 21.202C53.862 20.974 54.564 20.86 55.308 20.86C56.112 20.86 56.862 20.992 57.558 21.256C58.266 21.52 58.89 21.898 59.43 22.39C59.97 22.882 60.396 23.464 60.708 24.136L58.62 24.838C58.272 24.214 57.81 23.734 57.234 23.398C56.67 23.05 56.028 22.876 55.308 22.876C54.708 22.876 54.15 22.996 53.634 23.236C53.13 23.476 52.686 23.812 52.302 24.244C51.918 24.664 51.618 25.162 51.402 25.738C51.198 26.314 51.096 26.938 51.096 27.61C51.096 28.294 51.198 28.93 51.402 29.518C51.618 30.094 51.918 30.592 52.302 31.012C52.686 31.432 53.136 31.762 53.652 32.002C54.18 32.23 54.75 32.344 55.362 32.344C56.07 32.344 56.694 32.206 57.234 31.93C57.786 31.642 58.224 31.246 58.548 30.742C58.872 30.238 59.058 29.65 59.106 28.978H55.614V27.142H61.356V28.348C61.356 29.236 61.206 30.046 60.906 30.778C60.618 31.51 60.198 32.146 59.646 32.686C59.106 33.214 58.464 33.628 57.72 33.928C56.988 34.216 56.172 34.36 55.272 34.36ZM67.2107 34.27C66.5267 34.27 65.8907 34.15 65.3027 33.91C64.7267 33.658 64.2227 33.31 63.7907 32.866C63.3587 32.41 63.0227 31.882 62.7827 31.282C62.5427 30.67 62.4227 30.004 62.4227 29.284C62.4227 28.576 62.5427 27.922 62.7827 27.322C63.0227 26.71 63.3587 26.182 63.7907 25.738C64.2347 25.282 64.7507 24.934 65.3387 24.694C65.9387 24.442 66.5867 24.316 67.2827 24.316C67.9667 24.316 68.5967 24.442 69.1727 24.694C69.7607 24.934 70.2707 25.282 70.7027 25.738C71.1347 26.182 71.4707 26.704 71.7107 27.304C71.9507 27.904 72.0707 28.564 72.0707 29.284C72.0707 30.004 71.9507 30.67 71.7107 31.282C71.4707 31.882 71.1287 32.41 70.6847 32.866C70.2527 33.31 69.7367 33.658 69.1367 33.91C68.5487 34.15 67.9067 34.27 67.2107 34.27ZM67.2467 32.398C67.7627 32.398 68.2247 32.266 68.6327 32.002C69.0407 31.726 69.3587 31.354 69.5867 30.886C69.8267 30.418 69.9467 29.884 69.9467 29.284C69.9467 28.684 69.8267 28.156 69.5867 27.7C69.3587 27.232 69.0407 26.866 68.6327 26.602C68.2247 26.326 67.7627 26.188 67.2467 26.188C66.7307 26.188 66.2687 26.326 65.8607 26.602C65.4527 26.866 65.1287 27.232 64.8887 27.7C64.6607 28.156 64.5467 28.684 64.5467 29.284C64.5467 29.884 64.6607 30.418 64.8887 30.886C65.1287 31.354 65.4527 31.726 65.8607 32.002C66.2687 32.266 66.7307 32.398 67.2467 32.398ZM77.8552 34.27C77.1712 34.27 76.5352 34.15 75.9472 33.91C75.3712 33.658 74.8672 33.31 74.4352 32.866C74.0032 32.41 73.6672 31.882 73.4272 31.282C73.1872 30.67 73.0672 30.004 73.0672 29.284C73.0672 28.576 73.1872 27.922 73.4272 27.322C73.6672 26.71 74.0032 26.182 74.4352 25.738C74.8792 25.282 75.3952 24.934 75.9832 24.694C76.5832 24.442 77.2312 24.316 77.9272 24.316C78.6112 24.316 79.2412 24.442 79.8172 24.694C80.4052 24.934 80.9152 25.282 81.3472 25.738C81.7792 26.182 82.1152 26.704 82.3552 27.304C82.5952 27.904 82.7152 28.564 82.7152 29.284C82.7152 30.004 82.5952 30.67 82.3552 31.282C82.1152 31.882 81.7732 32.41 81.3292 32.866C80.8972 33.31 80.3812 33.658 79.7812 33.91C79.1932 34.15 78.5512 34.27 77.8552 34.27ZM77.8912 32.398C78.4072 32.398 78.8692 32.266 79.2772 32.002C79.6852 31.726 80.0032 31.354 80.2312 30.886C80.4712 30.418 80.5912 29.884 80.5912 29.284C80.5912 28.684 80.4712 28.156 80.2312 27.7C80.0032 27.232 79.6852 26.866 79.2772 26.602C78.8692 26.326 78.4072 26.188 77.8912 26.188C77.3752 26.188 76.9132 26.326 76.5052 26.602C76.0972 26.866 75.7732 27.232 75.5332 27.7C75.3052 28.156 75.1912 28.684 75.1912 29.284C75.1912 29.884 75.3052 30.418 75.5332 30.886C75.7732 31.354 76.0972 31.726 76.5052 32.002C76.9132 32.266 77.3752 32.398 77.8912 32.398ZM88.0498 33.82C87.4378 33.82 86.8678 33.7 86.3398 33.46C85.8118 33.22 85.3498 32.89 84.9538 32.47C84.5578 32.038 84.2518 31.54 84.0358 30.976C83.8198 30.4 83.7118 29.776 83.7118 29.104C83.7118 28.432 83.8198 27.808 84.0358 27.232C84.2638 26.644 84.5818 26.134 84.9898 25.702C85.3978 25.27 85.8718 24.934 86.4118 24.694C86.9518 24.442 87.5338 24.316 88.1578 24.316C88.8058 24.316 89.3938 24.46 89.9218 24.748C90.4618 25.024 90.8938 25.414 91.2178 25.918L91.2898 24.586H93.1798V33.01C93.1798 33.73 93.0658 34.384 92.8378 34.972C92.6098 35.572 92.2858 36.082 91.8658 36.502C91.4458 36.934 90.9418 37.264 90.3538 37.492C89.7778 37.72 89.1298 37.834 88.4098 37.834C87.4498 37.834 86.6098 37.618 85.8898 37.186C85.1698 36.754 84.6058 36.154 84.1978 35.386L86.1598 34.702C86.4238 35.134 86.7538 35.458 87.1498 35.674C87.5458 35.902 87.9898 36.016 88.4818 36.016C89.0098 36.016 89.4718 35.896 89.8678 35.656C90.2638 35.428 90.5698 35.098 90.7858 34.666C91.0018 34.246 91.1098 33.748 91.1098 33.172V32.272C90.7738 32.752 90.3418 33.13 89.8138 33.406C89.2858 33.682 88.6978 33.82 88.0498 33.82ZM88.4818 31.948C88.9858 31.948 89.4358 31.822 89.8318 31.57C90.2398 31.318 90.5578 30.976 90.7858 30.544C91.0258 30.112 91.1458 29.62 91.1458 29.068C91.1458 28.516 91.0258 28.024 90.7858 27.592C90.5578 27.16 90.2398 26.818 89.8318 26.566C89.4358 26.314 88.9858 26.188 88.4818 26.188C87.9778 26.188 87.5278 26.314 87.1318 26.566C86.7358 26.818 86.4178 27.16 86.1778 27.592C85.9498 28.024 85.8358 28.516 85.8358 29.068C85.8358 29.62 85.9498 30.112 86.1778 30.544C86.4178 30.976 86.7358 31.318 87.1318 31.57C87.5278 31.822 87.9778 31.948 88.4818 31.948ZM94.9109 34V20.608H96.9809V34H94.9109ZM103.092 34.27C102.396 34.27 101.754 34.15 101.166 33.91C100.59 33.658 100.086 33.31 99.6536 32.866C99.2216 32.422 98.8856 31.9 98.6456 31.3C98.4176 30.688 98.3036 30.016 98.3036 29.284C98.3036 28.576 98.4176 27.922 98.6456 27.322C98.8856 26.722 99.2096 26.2 99.6176 25.756C100.038 25.3 100.53 24.946 101.094 24.694C101.658 24.442 102.27 24.316 102.93 24.316C103.59 24.316 104.19 24.436 104.73 24.676C105.282 24.904 105.756 25.234 106.152 25.666C106.56 26.098 106.872 26.614 107.088 27.214C107.304 27.802 107.412 28.456 107.412 29.176V29.788H100.446C100.506 30.34 100.65 30.82 100.878 31.228C101.118 31.624 101.424 31.93 101.796 32.146C102.168 32.362 102.6 32.47 103.092 32.47C104.076 32.47 104.844 32.032 105.396 31.156L107.214 31.858C106.998 32.35 106.68 32.782 106.26 33.154C105.852 33.514 105.372 33.79 104.82 33.982C104.28 34.174 103.704 34.27 103.092 34.27ZM102.93 25.99C102.51 25.99 102.132 26.086 101.796 26.278C101.472 26.47 101.196 26.74 100.968 27.088C100.74 27.436 100.584 27.844 100.5 28.312H105.252C105.18 27.844 105.042 27.436 104.838 27.088C104.634 26.74 104.364 26.47 104.028 26.278C103.704 26.086 103.338 25.99 102.93 25.99ZM112.153 34V21.22H116.023C117.043 21.22 117.913 21.388 118.633 21.724C119.365 22.06 119.923 22.54 120.307 23.164C120.703 23.788 120.901 24.544 120.901 25.432C120.901 26.272 120.697 27.01 120.289 27.646C119.881 28.27 119.305 28.756 118.561 29.104C117.817 29.44 116.941 29.608 115.933 29.608C115.693 29.608 115.435 29.596 115.159 29.572C114.895 29.548 114.613 29.518 114.313 29.482V34H112.153ZM114.313 23.128V27.574C114.577 27.61 114.841 27.64 115.105 27.664C115.369 27.688 115.615 27.7 115.843 27.7C116.755 27.7 117.451 27.502 117.931 27.106C118.423 26.71 118.669 26.146 118.669 25.414C118.669 24.694 118.435 24.136 117.967 23.74C117.499 23.332 116.839 23.128 115.987 23.128H114.313ZM122.073 34V20.608H124.143V34H122.073ZM128.76 34.27C128.28 34.27 127.836 34.198 127.428 34.054C127.032 33.91 126.684 33.706 126.384 33.442C126.084 33.178 125.85 32.866 125.682 32.506C125.514 32.146 125.43 31.75 125.43 31.318C125.43 30.718 125.586 30.196 125.898 29.752C126.222 29.296 126.672 28.942 127.248 28.69C127.824 28.438 128.496 28.312 129.264 28.312C129.684 28.312 130.086 28.354 130.47 28.438C130.854 28.51 131.22 28.618 131.568 28.762V28.168C131.568 27.748 131.49 27.382 131.334 27.07C131.178 26.746 130.956 26.494 130.668 26.314C130.38 26.134 130.032 26.044 129.624 26.044C129.192 26.044 128.802 26.158 128.454 26.386C128.106 26.614 127.848 26.932 127.68 27.34L125.772 26.908C125.916 26.38 126.174 25.924 126.546 25.54C126.93 25.156 127.386 24.856 127.914 24.64C128.454 24.424 129.036 24.316 129.66 24.316C130.248 24.316 130.782 24.412 131.262 24.604C131.754 24.796 132.174 25.066 132.522 25.414C132.87 25.762 133.14 26.176 133.332 26.656C133.524 27.136 133.62 27.67 133.62 28.258V34H131.73L131.658 32.758C131.406 33.214 131.028 33.58 130.524 33.856C130.02 34.132 129.432 34.27 128.76 34.27ZM127.518 31.228C127.518 31.492 127.59 31.732 127.734 31.948C127.878 32.152 128.076 32.314 128.328 32.434C128.592 32.554 128.898 32.614 129.246 32.614C129.69 32.614 130.086 32.518 130.434 32.326C130.782 32.134 131.058 31.876 131.262 31.552C131.466 31.216 131.568 30.838 131.568 30.418V30.202C131.256 30.07 130.932 29.968 130.596 29.896C130.272 29.812 129.936 29.77 129.588 29.77C128.964 29.77 128.46 29.902 128.076 30.166C127.704 30.43 127.518 30.784 127.518 31.228ZM136.308 37.744C136.008 37.744 135.726 37.714 135.462 37.654C135.21 37.594 134.964 37.498 134.724 37.366L135.174 35.728C135.306 35.788 135.456 35.836 135.624 35.872C135.792 35.92 135.954 35.944 136.11 35.944C136.47 35.944 136.782 35.842 137.046 35.638C137.322 35.434 137.55 35.104 137.73 34.648L138.018 33.91L134.184 24.586H136.452L138.99 31.624L141.294 24.586H143.49L139.494 35.134C139.146 36.034 138.708 36.694 138.18 37.114C137.664 37.534 137.04 37.744 136.308 37.744Z" fill="white"/>
</svg>
