<svg width="36" height="36" viewBox="0 0 36 36" fill="none" xmlns="http://www.w3.org/2000/svg">
<path d="M31.4205 12.4576C31.4054 11.3215 31.1927 10.1967 30.792 9.13356C30.4445 8.23679 29.9138 7.42235 29.2337 6.7423C28.5537 6.06225 27.7393 5.53153 26.8425 5.18406C25.793 4.79009 24.6842 4.57707 23.5635 4.55406C22.1205 4.48956 21.663 4.47156 18 4.47156C14.337 4.47156 13.8675 4.47156 12.435 4.55406C11.3147 4.57724 10.2065 4.79026 9.15748 5.18406C8.26057 5.53129 7.44602 6.06192 6.76593 6.74201C6.08585 7.42209 5.55522 8.23664 5.20798 9.13356C4.81323 10.1823 4.60067 11.2907 4.57948 12.4111C4.51498 13.8556 4.49548 14.3131 4.49548 17.9761C4.49548 21.6391 4.49548 22.1071 4.57948 23.5411C4.60198 24.6631 4.81348 25.7701 5.20798 26.8216C5.5558 27.7182 6.08683 28.5324 6.76714 29.2122C7.44745 29.892 8.26208 30.4224 9.15898 30.7696C10.2051 31.1794 11.3135 31.4076 12.4365 31.4446C13.881 31.5091 14.3385 31.5286 18.0015 31.5286C21.6645 31.5286 22.134 31.5286 23.5665 31.4446C24.6872 31.4225 25.796 31.21 26.8455 30.8161C27.742 30.4682 28.5562 29.9373 29.2362 29.2573C29.9162 28.5773 30.4471 27.7631 30.795 26.8666C31.1895 25.8166 31.401 24.7096 31.4235 23.5861C31.488 22.1431 31.5075 21.6856 31.5075 18.0211C31.5045 14.3581 31.5045 13.8931 31.4205 12.4576ZM17.991 24.9031C14.16 24.9031 11.0565 21.7996 11.0565 17.9686C11.0565 14.1376 14.16 11.0341 17.991 11.0341C19.8301 11.0341 21.5939 11.7647 22.8944 13.0651C24.1949 14.3656 24.9255 16.1294 24.9255 17.9686C24.9255 19.8077 24.1949 21.5715 22.8944 22.872C21.5939 24.1725 19.8301 24.9031 17.991 24.9031ZM25.2015 12.3946C24.9891 12.3948 24.7787 12.3531 24.5825 12.2719C24.3862 12.1907 24.2078 12.0716 24.0577 11.9214C23.9075 11.7712 23.7884 11.5929 23.7072 11.3966C23.626 11.2003 23.5843 10.99 23.5845 10.7776C23.5845 10.5653 23.6263 10.3551 23.7075 10.159C23.7887 9.96295 23.9078 9.78478 24.0579 9.6347C24.208 9.48461 24.3861 9.36556 24.5822 9.28434C24.7783 9.20311 24.9885 9.16131 25.2007 9.16131C25.413 9.16131 25.6232 9.20311 25.8192 9.28434C26.0153 9.36556 26.1935 9.48461 26.3436 9.6347C26.4937 9.78478 26.6127 9.96295 26.694 10.159C26.7752 10.3551 26.817 10.5653 26.817 10.7776C26.817 11.6716 26.094 12.3946 25.2015 12.3946Z" fill="#BB2EAD"/>
<path d="M17.991 22.473C20.4788 22.473 22.4955 20.4563 22.4955 17.9685C22.4955 15.4807 20.4788 13.464 17.991 13.464C15.5032 13.464 13.4865 15.4807 13.4865 17.9685C13.4865 20.4563 15.5032 22.473 17.991 22.473Z" fill="#BB2EAD"/>
</svg>
