<svg width="25" height="25" viewBox="0 0 25 25" fill="none" xmlns="http://www.w3.org/2000/svg">
<path d="M18.0877 8.50022C18.0177 8.49022 17.9477 8.49022 17.8777 8.50022C16.3277 8.45022 15.0977 7.18022 15.0977 5.62022C15.0977 4.03022 16.3877 2.73022 17.9877 2.73022C19.5777 2.73022 20.8777 4.02022 20.8777 5.62022C20.8677 7.18022 19.6377 8.45022 18.0877 8.50022Z" fill="#0031BC"/>
<path d="M21.3477 15.4301C20.2277 16.1801 18.6577 16.4601 17.2077 16.2701C17.5877 15.4501 17.7877 14.5401 17.7977 13.5801C17.7977 12.5801 17.5777 11.6301 17.1577 10.8001C18.6377 10.6001 20.2077 10.8801 21.3377 11.6301C22.9177 12.6701 22.9177 14.3801 21.3477 15.4301Z" fill="#0031BC"/>
<path d="M6.99753 8.50022C7.06753 8.49022 7.13753 8.49022 7.20753 8.50022C8.75753 8.45022 9.98753 7.18022 9.98753 5.62022C9.98753 4.02022 8.69753 2.73022 7.09753 2.73022C5.50753 2.73022 4.21753 4.02022 4.21753 5.62022C4.21753 7.18022 5.44753 8.45022 6.99753 8.50022Z" fill="#0031BC"/>
<path d="M7.10773 13.5803C7.10773 14.5503 7.31773 15.4703 7.69773 16.3003C6.28773 16.4503 4.81773 16.1503 3.73773 15.4403C2.15773 14.3903 2.15773 12.6803 3.73773 11.6303C4.80773 10.9103 6.31773 10.6203 7.73773 10.7803C7.32773 11.6203 7.10773 12.5703 7.10773 13.5803Z" fill="#0031BC"/>
<path d="M12.6777 16.6002C12.5977 16.5902 12.5077 16.5902 12.4177 16.6002C10.5777 16.5402 9.10767 15.0302 9.10767 13.1702C9.11767 11.2702 10.6477 9.73022 12.5577 9.73022C14.4577 9.73022 15.9977 11.2702 15.9977 13.1702C15.9877 15.0302 14.5277 16.5402 12.6777 16.6002Z" fill="#0031BC"/>
<path d="M9.42767 18.6701C7.91767 19.6801 7.91767 21.3401 9.42767 22.3401C11.1477 23.4901 13.9677 23.4901 15.6877 22.3401C17.1977 21.3301 17.1977 19.6701 15.6877 18.6701C13.9777 17.5201 11.1577 17.5201 9.42767 18.6701Z" fill="#0031BC"/>
</svg>
