<svg width="24" height="24" viewBox="0 0 24 24" fill="none" xmlns="http://www.w3.org/2000/svg">
<path d="M21 12C21 7.03125 16.9688 3 12 3C7.03125 3 3 7.03125 3 12C3 16.9688 7.03125 21 12 21C16.9688 21 21 16.9688 21 12Z" stroke="#656589" stroke-width="1.5" stroke-miterlimit="10"/>
<path d="M9.97827 3.22827L16.875 10.125M16.875 4.4339V13.875V4.4339ZM20.7717 9.97827L13.875 16.875L20.7717 9.97827ZM19.5661 16.875H10.125H19.5661ZM14.0217 20.7717L7.27171 14.0217L14.0217 20.7717ZM7.12499 19.5V10.125V19.5ZM3.22827 14.0217L9.97827 7.27171L3.22827 14.0217ZM4.4339 7.12499H13.5H4.4339Z" stroke="#656589" stroke-width="1.5" stroke-linecap="round" stroke-linejoin="round"/>
</svg>
