<svg width="25" height="25" viewBox="0 0 25 25" fill="none" xmlns="http://www.w3.org/2000/svg">
<path d="M17.3576 2.30371H14.7576C11.5576 2.30371 9.55762 4.30371 9.55762 7.50371V11.5537H15.8076C16.2176 11.5537 16.5576 11.8937 16.5576 12.3037C16.5576 12.7137 16.2176 13.0537 15.8076 13.0537H9.55762V17.1037C9.55762 20.3037 11.5576 22.3037 14.7576 22.3037H17.3476C20.5476 22.3037 22.5476 20.3037 22.5476 17.1037V7.50371C22.5576 4.30371 20.5576 2.30371 17.3576 2.30371Z" fill="#FF3F3F"/>
<path d="M5.11756 11.5538L7.18756 9.4838C7.33756 9.3338 7.40756 9.1438 7.40756 8.9538C7.40756 8.7638 7.33756 8.5638 7.18756 8.4238C6.89756 8.1338 6.41756 8.1338 6.12756 8.4238L2.77756 11.7738C2.48756 12.0638 2.48756 12.5438 2.77756 12.8338L6.12756 16.1838C6.41756 16.4738 6.89756 16.4738 7.18756 16.1838C7.47756 15.8938 7.47756 15.4138 7.18756 15.1238L5.11756 13.0538H9.55756V11.5538H5.11756Z" fill="#FF3F3F"/>
</svg>
