<svg width="24" height="25" viewBox="0 0 24 25" fill="none" xmlns="http://www.w3.org/2000/svg">
<path d="M17 2.6084H7C4 2.6084 2 4.6084 2 7.6084V13.6084C2 16.6084 4 18.6084 7 18.6084V20.7384C7 21.5384 7.89 22.0184 8.55 21.5684L13 18.6084H17C20 18.6084 22 16.6084 22 13.6084V7.6084C22 4.6084 20 2.6084 17 2.6084ZM12 14.7784C11.58 14.7784 11.25 14.4384 11.25 14.0284C11.25 13.6184 11.58 13.2784 12 13.2784C12.42 13.2784 12.75 13.6184 12.75 14.0284C12.75 14.4384 12.42 14.7784 12 14.7784ZM13.26 10.6284C12.87 10.8884 12.75 11.0584 12.75 11.3384V11.5484C12.75 11.9584 12.41 12.2984 12 12.2984C11.59 12.2984 11.25 11.9584 11.25 11.5484V11.3384C11.25 10.1784 12.1 9.6084 12.42 9.3884C12.79 9.1384 12.91 8.9684 12.91 8.7084C12.91 8.2084 12.5 7.7984 12 7.7984C11.5 7.7984 11.09 8.2084 11.09 8.7084C11.09 9.1184 10.75 9.4584 10.34 9.4584C9.93 9.4584 9.59 9.1184 9.59 8.7084C9.59 7.3784 10.67 6.2984 12 6.2984C13.33 6.2984 14.41 7.3784 14.41 8.7084C14.41 9.8484 13.57 10.4184 13.26 10.6284Z" fill="#1D4ED8"/>
</svg>
