<svg width="48" height="48" viewBox="0 0 48 48" fill="none" xmlns="http://www.w3.org/2000/svg">
<path d="M38.046 33.954C37.1093 33.0567 36.1976 32.1337 35.312 31.186C34.568 30.43 34.12 29.88 34.12 29.88L28.52 27.206C30.762 24.6633 31.9993 21.39 32 18C32 10.282 25.72 4 18 4C10.28 4 4 10.282 4 18C4 25.718 10.28 32 18 32C21.526 32 24.74 30.68 27.206 28.522L29.88 34.122C29.88 34.122 30.43 34.57 31.186 35.314C31.96 36.04 32.978 37.022 33.954 38.048L36.67 40.832L37.878 42.124L42.12 37.882L40.828 36.674C40.07 35.93 39.058 34.942 38.046 33.954ZM18 28C12.486 28 8 23.514 8 18C8 12.486 12.486 8 18 8C23.514 8 28 12.486 28 18C28 23.514 23.514 28 18 28Z" fill="#313143"/>
</svg>
