<svg width="36" height="36" viewBox="0 0 36 36" fill="none" xmlns="http://www.w3.org/2000/svg">
<path d="M24.0434 5.22628L11.1248 9.51818C2.44083 12.4224 2.44083 17.1578 11.1248 20.0476L14.9589 21.3209L16.2321 25.155C19.122 33.8389 23.8717 33.8389 26.7616 25.155L31.0678 12.2507C32.9849 6.45662 29.8375 3.29492 24.0434 5.22628ZM24.5012 12.9231L19.0648 18.3881C18.8502 18.6027 18.5784 18.7028 18.3066 18.7028C18.0347 18.7028 17.7629 18.6027 17.5483 18.3881C17.1334 17.9732 17.1334 17.2865 17.5483 16.8716L22.9847 11.4066C23.3996 10.9917 24.0863 10.9917 24.5012 11.4066C24.9161 11.8215 24.9161 12.5082 24.5012 12.9231Z" fill="white"/>
</svg>
