<svg width="24" height="24" viewBox="0 0 24 24" fill="none" xmlns="http://www.w3.org/2000/svg">
<path d="M18.9401 5.41994L13.7701 2.42994C12.7801 1.85994 11.2301 1.85994 10.2401 2.42994L5.02008 5.43994C2.95008 6.83994 2.83008 7.04994 2.83008 9.27994V14.7099C2.83008 16.9399 2.95008 17.1599 5.06008 18.5799L10.2301 21.5699C10.7301 21.8599 11.3701 21.9999 12.0001 21.9999C12.6301 21.9999 13.2701 21.8599 13.7601 21.5699L18.9801 18.5599C21.0501 17.1599 21.1701 16.9499 21.1701 14.7199V9.27994C21.1701 7.04994 21.0501 6.83994 18.9401 5.41994ZM12.0001 15.2499C10.2101 15.2499 8.75008 13.7899 8.75008 11.9999C8.75008 10.2099 10.2101 8.74994 12.0001 8.74994C13.7901 8.74994 15.2501 10.2099 15.2501 11.9999C15.2501 13.7899 13.7901 15.2499 12.0001 15.2499Z" fill="#1D4ED8"/>
</svg>
