<svg width="24" height="24" viewBox="0 0 24 24" fill="none" xmlns="http://www.w3.org/2000/svg">
<path d="M12 15C13.6569 15 15 13.6569 15 12C15 10.3431 13.6569 9 12 9C10.3431 9 9 10.3431 9 12C9 13.6569 10.3431 15 12 15Z" fill="url(#paint0_linear_2021_27115)"/>
<path d="M13 4.069V2H11V4.069C9.24017 4.29335 7.60466 5.09574 6.3502 6.3502C5.09574 7.60466 4.29335 9.24017 4.069 11H2V13H4.069C4.29319 14.7599 5.09552 16.3955 6.35001 17.65C7.6045 18.9045 9.2401 19.7068 11 19.931V22H13V19.931C14.7599 19.7068 16.3955 18.9045 17.65 17.65C18.9045 16.3955 19.7068 14.7599 19.931 13H22V11H19.931C19.7066 9.24017 18.9043 7.60466 17.6498 6.3502C16.3953 5.09574 14.7598 4.29335 13 4.069ZM12 18C8.691 18 6 15.309 6 12C6 8.691 8.691 6 12 6C15.309 6 18 8.691 18 12C18 15.309 15.309 18 12 18Z" fill="url(#paint1_linear_2021_27115)"/>
<defs>
<linearGradient id="paint0_linear_2021_27115" x1="12" y1="9" x2="12" y2="15" gradientUnits="userSpaceOnUse">
<stop stop-color="#1D4ED8"/>
<stop offset="1" stop-color="#1EE4D9"/>
</linearGradient>
<linearGradient id="paint1_linear_2021_27115" x1="12" y1="2" x2="12" y2="22" gradientUnits="userSpaceOnUse">
<stop stop-color="#1D4ED8"/>
<stop offset="1" stop-color="#1EE4D9"/>
</linearGradient>
</defs>
</svg>
