<svg width="36" height="36" viewBox="0 0 36 36" fill="none" xmlns="http://www.w3.org/2000/svg">
<path d="M29.4495 11.9954C29.469 12.2579 29.469 12.5189 29.469 12.7799C29.469 20.7674 23.3895 29.9714 12.279 29.9714C8.856 29.9714 5.676 28.9799 3 27.2579C3.486 27.3134 3.954 27.3329 4.4595 27.3329C7.17899 27.3395 9.82147 26.4302 11.961 24.7514C10.7001 24.7286 9.47786 24.3126 8.46486 23.5615C7.45185 22.8105 6.69868 21.7618 6.3105 20.5619C6.684 20.6174 7.059 20.6549 7.452 20.6549C7.9935 20.6549 8.538 20.5799 9.0435 20.4494C7.67514 20.1732 6.44471 19.4315 5.56143 18.3505C4.67815 17.2695 4.19654 15.9159 4.1985 14.5199V14.4449C5.004 14.8934 5.9385 15.1739 6.9285 15.2114C6.09913 14.6603 5.41908 13.9125 4.94901 13.0346C4.47894 12.1568 4.23347 11.1762 4.2345 10.1804C4.2345 9.05844 4.533 8.02944 5.0565 7.13244C6.57471 8.99997 8.46825 10.5278 10.6145 11.6169C12.7608 12.7061 15.1118 13.3323 17.5155 13.4549C17.4225 13.0049 17.3655 12.5384 17.3655 12.0704C17.3651 11.2769 17.5211 10.491 17.8246 9.7578C18.1281 9.02458 18.5732 8.35835 19.1343 7.79722C19.6954 7.23609 20.3616 6.79106 21.0949 6.48756C21.8281 6.18406 22.6139 6.02805 23.4075 6.02844C25.1475 6.02844 26.718 6.75744 27.822 7.93644C29.1747 7.67487 30.4718 7.18108 31.656 6.47694C31.2051 7.87317 30.2606 9.0571 28.9995 9.80694C30.1992 9.67011 31.3717 9.35462 32.478 8.87094C31.6517 10.0756 30.6278 11.132 29.4495 11.9954Z" fill="#56CCF2"/>
</svg>
