<svg width="36" height="36" viewBox="0 0 36 36" fill="none" xmlns="http://www.w3.org/2000/svg">
<path d="M18.0645 10.3875C16.0842 10.3895 14.1855 11.1769 12.7851 12.577C11.3847 13.9772 10.5969 15.8757 10.5945 17.856C10.593 19.266 10.989 20.64 11.736 21.8295L11.913 22.1115L11.1585 24.867L13.986 24.126L14.2575 24.288C15.4088 24.9694 16.7222 25.3284 18.06 25.3275H18.0615C20.0411 25.3247 21.9389 24.5372 23.3389 23.1375C24.7389 21.7378 25.5268 19.8401 25.53 17.8605C25.5334 16.8792 25.3421 15.907 24.9673 15.0002C24.5924 14.0933 24.0413 13.2699 23.346 12.5775C22.6543 11.8812 21.8313 11.3292 20.9247 10.9533C20.0181 10.5773 19.0459 10.385 18.0645 10.3875ZM22.4565 21.0645C22.269 21.5895 21.372 22.0665 20.9415 22.131C20.4695 22.2124 19.9851 22.182 19.527 22.0425C19.0924 21.9079 18.6653 21.7502 18.2475 21.57C15.9945 20.598 14.5245 18.3315 14.4105 18.18C14.2995 18.03 13.4955 16.962 13.4955 15.858C13.4955 14.7525 14.0745 14.2095 14.28 13.9845C14.3554 13.8992 14.4477 13.8304 14.5509 13.7824C14.6541 13.7344 14.7662 13.7082 14.88 13.7055C15.03 13.7055 15.1785 13.707 15.3105 13.713C15.4485 13.719 15.633 13.6605 15.8145 14.0985C16.002 14.5485 16.452 15.6525 16.5075 15.765C16.563 15.876 16.6005 16.008 16.527 16.158C16.452 16.3095 16.416 16.401 16.302 16.533C16.191 16.665 16.0665 16.8255 15.966 16.9275C15.8535 17.0385 15.7365 17.16 15.867 17.385C15.999 17.6085 16.449 18.345 17.115 18.9405C17.973 19.7055 18.6975 19.941 18.921 20.055C19.146 20.166 19.2765 20.1495 19.4085 19.998C19.539 19.8465 19.9695 19.3425 20.1195 19.119C20.2695 18.894 20.418 18.9315 20.625 19.005C20.8305 19.0815 21.9345 19.623 22.158 19.7355C22.38 19.8465 22.5315 19.9035 22.5885 19.998C22.6425 20.091 22.6425 20.5395 22.4565 21.0645Z" fill="#6FCF97"/>
<path d="M30 4.5H6C5.60218 4.5 5.22064 4.65804 4.93934 4.93934C4.65804 5.22064 4.5 5.60218 4.5 6V30C4.5 30.3978 4.65804 30.7794 4.93934 31.0607C5.22064 31.342 5.60218 31.5 6 31.5H30C30.3978 31.5 30.7794 31.342 31.0607 31.0607C31.342 30.7794 31.5 30.3978 31.5 30V6C31.5 5.60218 31.342 5.22064 31.0607 4.93934C30.7794 4.65804 30.3978 4.5 30 4.5ZM18.06 26.844H18.057C16.5571 26.8442 15.0811 26.4682 13.764 25.7505L9 27L10.275 22.344C9.48747 20.9778 9.07329 19.4285 9.07407 17.8516C9.07484 16.2747 9.49054 14.7258 10.2794 13.3604C11.0683 11.995 12.2025 10.8612 13.5683 10.0729C14.934 9.28463 16.4831 8.8696 18.06 8.8695C19.2413 8.86623 20.4115 9.09751 21.5027 9.54992C22.594 10.0023 23.5845 10.6669 24.417 11.505C25.2533 12.338 25.9161 13.3287 26.367 14.4196C26.8178 15.5106 27.0477 16.6801 27.0435 17.8605C27.0399 20.242 26.0923 22.5249 24.4084 24.2088C22.7244 25.8928 20.4415 26.8404 18.06 26.844Z" fill="#6FCF97"/>
</svg>
